<svg xmlns="http://www.w3.org/2000/svg" xmlns:xlink="http://www.w3.org/1999/xlink" viewBox="0 0 64 64" version="1.1">
<g id="surface1">
<path style=" fill:#C2CDE7;" d="M 5 9 L 59 9 C 60.105469 9 61 9.894531 61 11 L 61 49 C 61 50.105469 60.105469 51 59 51 L 5 51 C 3.894531 51 3 50.105469 3 49 L 3 11 C 3 9.894531 3.894531 9 5 9 Z "></path>
<path style=" fill:#C5E4FA;" d="M 3 13 L 61 13 L 61 45 L 3 45 Z "></path>
<path style=" fill:#E3F2FF;" d="M 42.960938 44.960938 L 61 26.929688 L 61 13 L 58.859375 13 L 26.890625 44.960938 Z "></path>
<path style=" fill:#E3F2FF;" d="M 16.179688 44.960938 L 22.609375 44.960938 L 54.570313 13 L 48.140625 13 Z "></path>
<path style=" fill:#E3F2FF;" d="M 11.890625 44.960938 L 43.859375 13 L 38.5 13 L 6.539063 44.960938 Z "></path>
<path style=" fill:#FFF8F8;" d="M 14.5 17 L 15.738281 19.261719 L 18 20.5 L 15.738281 21.738281 L 14.5 24 L 13.261719 21.738281 L 11 20.5 L 13.261719 19.261719 Z "></path>
<path style=" fill:#FFF8F8;" d="M 48.421875 17.160156 L 49.269531 18.730469 L 50.839844 19.578125 L 49.269531 20.441406 L 48.421875 22 L 47.558594 20.441406 L 46 19.578125 L 47.558594 18.730469 Z "></path>
<path style=" fill:#FFF8F8;" d="M 54.648438 34.699219 L 55.230469 35.769531 L 56.300781 36.351563 L 55.230469 36.941406 L 54.648438 38 L 54.058594 36.941406 L 53 36.351563 L 54.058594 35.769531 Z "></path>
<path style=" fill:#CFD9ED;" d="M 3 45 L 61 45 L 61 48 L 3 48 Z "></path>
<path style=" fill:#A0AECB;" d="M 27 51 L 37 51 L 37 55 L 27 55 Z "></path>
<path style=" fill:#ACB7D0;" d="M 46 59 L 18 59 L 20.828125 56.171875 C 21.582031 55.421875 22.597656 55 23.660156 55 L 40.339844 55 C 41.402344 55 42.417969 55.421875 43.171875 56.171875 Z "></path>
<path style=" fill:#8D6C9F;" d="M 59 8 L 5 8 C 3.34375 8 2 9.34375 2 11 L 2 49 C 2 50.65625 3.34375 52 5 52 L 26 52 L 26 54 L 23.660156 54 C 22.332031 53.996094 21.058594 54.523438 20.121094 55.460938 L 17.289063 58.289063 C 17 58.574219 16.914063 59.007813 17.070313 59.382813 C 17.226563 59.757813 17.59375 60.003906 18 60 L 46 60 C 46.40625 60.003906 46.773438 59.757813 46.929688 59.382813 C 47.085938 59.007813 47 58.574219 46.710938 58.289063 L 43.878906 55.460938 C 42.941406 54.523438 41.667969 53.996094 40.339844 54 L 38 54 L 38 52 L 59 52 C 60.65625 52 62 50.65625 62 49 L 62 11 C 62 9.34375 60.65625 8 59 8 Z M 40.339844 56 C 41.136719 56 41.898438 56.316406 42.460938 56.878906 L 43.589844 58 L 20.410156 58 L 21.53125 56.878906 C 22.09375 56.316406 22.859375 55.996094 23.660156 56 Z M 28 54 L 28 52 L 36 52 L 36 54 Z M 59 50 L 5 50 C 4.449219 50 4 49.550781 4 49 L 4 46 L 37.078125 46 C 37.632813 46 38.078125 45.550781 38.078125 45 C 38.078125 44.449219 37.632813 44 37.078125 44 L 4 44 L 4 11 C 4 10.449219 4.449219 10 5 10 L 59 10 C 59.550781 10 60 10.449219 60 11 L 60 44 L 57 44 C 56.449219 44 56 44.449219 56 45 C 56 45.550781 56.449219 46 57 46 L 60 46 L 60 49 C 60 49.550781 59.550781 50 59 50 Z "></path>
<path style=" fill:#FC6D74;" d="M 42 43 C 41.449219 43 41 43.449219 41 44 L 41 46 C 41 46.550781 41.449219 47 42 47 C 42.550781 47 43 46.550781 43 46 L 43 44 C 43 43.449219 42.550781 43 42 43 Z "></path>
<path style=" fill:#34C695;" d="M 47 43 C 46.449219 43 46 43.449219 46 44 L 46 46 C 46 46.550781 46.449219 47 47 47 C 47.550781 47 48 46.550781 48 46 L 48 44 C 48 43.449219 47.550781 43 47 43 Z "></path>
<path style=" fill:#5EB0DD;" d="M 52 43 C 51.449219 43 51 43.449219 51 44 L 51 46 C 51 46.550781 51.449219 47 52 47 C 52.550781 47 53 46.550781 53 46 L 53 44 C 53 43.449219 52.550781 43 52 43 Z "></path>
<path style=" fill:#8D6C9F;" d="M 58 13 C 58 12.449219 57.550781 12 57 12 L 53 12 C 52.449219 12 52 12.449219 52 13 C 52 13.550781 52.449219 14 53 14 L 57 14 C 57.550781 14 58 13.550781 58 13 Z "></path>
<path style=" fill:#8D6C9F;" d="M 50 13 C 50 12.449219 49.550781 12 49 12 L 7 12 C 6.449219 12 6 12.449219 6 13 C 6 13.550781 6.449219 14 7 14 L 49 14 C 49.550781 14 50 13.550781 50 13 Z "></path>
<path style=" fill:#8D6C9F;" d="M 52 28 L 42 28 C 41.625 28 41.28125 28.214844 41.109375 28.550781 L 40.109375 30.5 L 37.921875 24.648438 C 37.777344 24.265625 37.410156 24.007813 37 24 C 36.566406 24.019531 36.191406 24.320313 36.078125 24.738281 L 33.320313 34.929688 L 31 17.859375 C 31.03125 17.308594 30.613281 16.832031 30.058594 16.800781 C 29.507813 16.765625 29.03125 17.1875 29 17.738281 L 25.800781 29.738281 L 23.898438 24.671875 C 23.761719 24.296875 23.414063 24.042969 23.019531 24.019531 C 22.621094 24 22.25 24.214844 22.070313 24.570313 L 20.378906 28 L 11 28 C 10.449219 28 10 28.449219 10 29 C 10 29.550781 10.449219 30 11 30 L 21 30 C 21.375 30 21.71875 29.785156 21.890625 29.449219 L 22.890625 27.5 L 25.078125 33.351563 C 25.234375 33.753906 25.628906 34.015625 26.0625 33.996094 C 26.496094 33.976563 26.867188 33.679688 26.980469 33.261719 L 29.699219 23.070313 L 32 40.140625 C 32.066406 40.613281 32.453125 40.972656 32.929688 41 L 33 41 C 33.464844 41.015625 33.878906 40.710938 34 40.261719 L 37.199219 28.261719 L 39.101563 33.328125 C 39.238281 33.703125 39.585938 33.957031 39.980469 33.980469 C 40.378906 34 40.75 33.785156 40.929688 33.429688 L 42.621094 30 L 52 30 C 52.550781 30 53 29.550781 53 29 C 53 28.449219 52.550781 28 52 28 Z "></path>
</g>
</svg>